<svg width="48" height="48" viewBox="0 0 48 48" fill="none" xmlns="http://www.w3.org/2000/svg">
<rect width="48" height="48" rx="6" fill="white"/>
<g clip-path="url(#clip0_2_2)">
<path d="M31.7363 11.0074L29.3936 9.16621C29.2502 9.05383 29.2502 8.86931 29.3936 8.75659L31.7365 6.91585C31.8803 6.80325 31.9404 6.613 31.8702 6.49331C31.7998 6.37397 31.6034 6.33149 31.4342 6.39892L28.6483 7.50853C28.479 7.57663 28.3194 7.48381 28.294 7.30288L27.8751 4.32882C27.8492 4.148 27.7132 4 27.5724 4C27.4323 4 27.2964 4.148 27.2713 4.3287L26.8521 7.30299C26.8265 7.48392 26.6671 7.57652 26.4975 7.50864L23.7578 6.41746C23.5879 6.34981 23.3111 6.34981 23.1416 6.41746L20.4014 7.50864C20.232 7.57652 20.0724 7.48392 20.047 7.30299L19.6284 4.3287C19.6025 4.148 19.4668 4 19.3265 4C19.1858 4 19.0497 4.148 19.0245 4.3287L18.6053 7.30299C18.5799 7.48392 18.4204 7.57652 18.251 7.50864L15.4652 6.39925C15.2959 6.33149 15.0998 6.37419 15.0294 6.49343C14.9592 6.61322 15.0191 6.80359 15.1625 6.91596L17.5056 8.7567C17.6491 8.86942 17.6491 9.05394 17.5056 9.16643L15.1625 11.0074C15.0187 11.12 14.9591 11.3216 15.0292 11.4551C15.0997 11.5888 15.2958 11.6426 15.4649 11.5747L18.2257 10.466C18.3954 10.3982 18.5531 10.4905 18.5769 10.6714L18.9751 13.6714C18.9992 13.852 19.157 13.9999 19.3257 13.9999C19.4943 13.9999 19.6522 13.8521 19.6764 13.6714L20.0753 10.6714C20.0989 10.4905 20.2573 10.3983 20.4261 10.466L23.1416 11.5558C23.3109 11.6239 23.5878 11.6239 23.7571 11.5558L26.4721 10.466C26.6412 10.3982 26.7992 10.4905 26.8233 10.6714L27.2223 13.6714C27.2461 13.852 27.404 13.9999 27.5723 13.9999C27.7411 13.9999 27.899 13.8521 27.9229 13.6714L28.3219 10.6714C28.3461 10.4905 28.5039 10.3983 28.6729 10.466L31.4341 11.5747C31.6026 11.6426 31.7993 11.5887 31.8696 11.4552C31.9401 11.3219 31.8802 11.1203 31.7365 11.0077L31.7363 11.0074ZM25.7759 9.18958L23.7126 10.778C23.5682 10.8893 23.3313 10.8893 23.1874 10.778L21.1234 9.18958C20.9791 9.07833 20.978 8.89515 21.1212 8.78221L23.1889 7.15353C23.3321 7.04059 23.5669 7.04059 23.7101 7.15353L25.7779 8.78221C25.9214 8.89504 25.9203 9.07821 25.7756 9.18969L25.7759 9.18958Z" fill="black"/>
</g>
<g clip-path="url(#clip1_2_2)">
<path d="M31.7363 25.6963L29.3936 23.8551C29.2502 23.7427 29.2502 23.5582 29.3936 23.4455L31.7365 21.6047C31.8803 21.4921 31.9404 21.3019 31.8702 21.1822C31.7998 21.0629 31.6034 21.0204 31.4342 21.0878L28.6483 22.1974C28.479 22.2655 28.3194 22.1727 28.294 21.9918L27.8751 19.0177C27.8492 18.8369 27.7132 18.6889 27.5724 18.6889C27.4323 18.6889 27.2964 18.8369 27.2713 19.0176L26.8521 21.9919C26.8265 22.1728 26.6671 22.2654 26.4975 22.1975L23.7578 21.1063C23.5879 21.0387 23.3111 21.0387 23.1416 21.1063L20.4014 22.1975C20.232 22.2654 20.0724 22.1728 20.047 21.9919L19.6284 19.0176C19.6025 18.8369 19.4668 18.6889 19.3265 18.6889C19.1858 18.6889 19.0497 18.8369 19.0245 19.0176L18.6053 21.9919C18.5799 22.1728 18.4204 22.2654 18.251 22.1975L15.4652 21.0881C15.2959 21.0204 15.0998 21.0631 15.0294 21.1823C14.9592 21.3021 15.0191 21.4925 15.1625 21.6049L17.5056 23.4456C17.6491 23.5583 17.6491 23.7428 17.5056 23.8553L15.1625 25.6963C15.0187 25.8089 14.9591 26.0105 15.0292 26.144C15.0997 26.2777 15.2958 26.3314 15.4649 26.2636L18.2257 25.1548C18.3954 25.0871 18.5531 25.1793 18.5769 25.3603L18.9751 28.3603C18.9992 28.5409 19.157 28.6888 19.3257 28.6888C19.4943 28.6888 19.6522 28.541 19.6764 28.3603L20.0753 25.3603C20.0989 25.1793 20.2573 25.0872 20.4261 25.1548L23.1416 26.2447C23.3109 26.3128 23.5878 26.3128 23.7571 26.2447L26.4721 25.1548C26.6412 25.0871 26.7992 25.1793 26.8233 25.3603L27.2223 28.3603C27.2461 28.5409 27.404 28.6888 27.5723 28.6888C27.7411 28.6888 27.899 28.541 27.9229 28.3603L28.3219 25.3603C28.3461 25.1793 28.5039 25.0872 28.6729 25.1548L31.4341 26.2636C31.6026 26.3314 31.7993 26.2776 31.8696 26.1441C31.9401 26.0108 31.8802 25.8092 31.7365 25.6966L31.7363 25.6963ZM25.7759 23.8785L23.7126 25.4669C23.5682 25.5782 23.3313 25.5782 23.1874 25.4669L21.1234 23.8785C20.9791 23.7672 20.978 23.584 21.1212 23.4711L23.1889 21.8424C23.3321 21.7295 23.5669 21.7295 23.7101 21.8424L25.7779 23.4711C25.9214 23.5839 25.9203 23.7671 25.7756 23.8786L25.7759 23.8785Z" fill="black"/>
</g>
<g clip-path="url(#clip2_2_2)">
<path d="M31.7363 40.3852L29.3936 38.544C29.2502 38.4316 29.2502 38.2471 29.3936 38.1344L31.7365 36.2936C31.8803 36.181 31.9404 35.9908 31.8702 35.8711C31.7998 35.7517 31.6034 35.7093 31.4342 35.7767L28.6483 36.8863C28.479 36.9544 28.3194 36.8616 28.294 36.6807L27.8751 33.7066C27.8492 33.5258 27.7132 33.3778 27.5724 33.3778C27.4323 33.3778 27.2964 33.5258 27.2713 33.7065L26.8521 36.6808C26.8265 36.8617 26.6671 36.9543 26.4975 36.8864L23.7578 35.7952C23.5879 35.7276 23.3111 35.7276 23.1416 35.7952L20.4014 36.8864C20.232 36.9543 20.0724 36.8617 20.047 36.6808L19.6284 33.7065C19.6025 33.5258 19.4668 33.3778 19.3265 33.3778C19.1858 33.3778 19.0497 33.5258 19.0245 33.7065L18.6053 36.6808C18.5799 36.8617 18.4204 36.9543 18.251 36.8864L15.4652 35.777C15.2959 35.7093 15.0998 35.752 15.0294 35.8712C14.9592 35.991 15.0191 36.1814 15.1625 36.2937L17.5056 38.1345C17.6491 38.2472 17.6491 38.4317 17.5056 38.5442L15.1625 40.3852C15.0187 40.4978 14.9591 40.6994 15.0292 40.8329C15.0997 40.9666 15.2958 41.0203 15.4649 40.9525L18.2257 39.8437C18.3954 39.776 18.5531 39.8682 18.5769 40.0492L18.9751 43.0492C18.9992 43.2298 19.157 43.3777 19.3257 43.3777C19.4943 43.3777 19.6522 43.2299 19.6764 43.0492L20.0753 40.0492C20.0989 39.8682 20.2573 39.7761 20.4261 39.8437L23.1416 40.9336C23.3109 41.0017 23.5878 41.0017 23.7571 40.9336L26.4721 39.8437C26.6412 39.776 26.7992 39.8682 26.8233 40.0492L27.2223 43.0492C27.2461 43.2298 27.404 43.3777 27.5723 43.3777C27.7411 43.3777 27.899 43.2299 27.9229 43.0492L28.3219 40.0492C28.3461 39.8682 28.5039 39.7761 28.6729 39.8437L31.4341 40.9525C31.6026 41.0203 31.7993 40.9665 31.8696 40.833C31.9401 40.6997 31.8802 40.4981 31.7365 40.3855L31.7363 40.3852ZM25.7759 38.5674L23.7126 40.1558C23.5682 40.2671 23.3313 40.2671 23.1874 40.1558L21.1234 38.5674C20.9791 38.4561 20.978 38.2729 21.1212 38.16L23.1889 36.5313C23.3321 36.4184 23.5669 36.4184 23.7101 36.5313L25.7779 38.16C25.9214 38.2728 25.9203 38.456 25.7756 38.5675L25.7759 38.5674Z" fill="black"/>
</g>
<defs>
<clipPath id="clip0_2_2">
<rect width="16.8993" height="10" fill="white" transform="translate(15 4)"/>
</clipPath>
<clipPath id="clip1_2_2">
<rect width="16.8993" height="10" fill="white" transform="translate(15 18.6889)"/>
</clipPath>
<clipPath id="clip2_2_2">
<rect width="16.8993" height="10" fill="white" transform="translate(15 33.3778)"/>
</clipPath>
</defs>
</svg>
